<?xml version="1.0" encoding="iso-8859-1"?>
<!-- Generator: Adobe Illustrator 19.0.0, SVG Export Plug-In . SVG Version: 6.00 Build 0)  -->
<svg version="1.1" id="Layer_1" xmlns="http://www.w3.org/2000/svg" xmlns:xlink="http://www.w3.org/1999/xlink" x="0px" y="0px"
	 viewBox="0 0 512 512" style="enable-background:new 0 0 512 512;" xml:space="preserve">
<path style="fill:#75C0C7;" d="M311.525,443.834v-63.962h-37.744c3.833,4.191,6.232,9.793,6.232,15.972
	c0,13.262-10.751,23.995-24.014,23.995s-24.014-10.724-24.014-23.986c0-6.178,2.399-11.79,6.232-15.981h-37.744v63.962
	c0,13.262-11.258,24.564-24.521,24.564l160.092,0.524C322.784,468.921,311.525,457.096,311.525,443.834z"/>
<g>
	<path style="fill:#589095;" d="M278.543,387.204c0.894,2.095,1.471,4.888,1.471,7.71c0,13.262-10.751,23.72-24.014,23.72h55.525
		v-31.429H278.543z"/>
	<path style="fill:#589095;" d="M231.986,394.915c0-2.822,0.576-5.614,1.471-7.71h-32.982v31.429h55.525
		C242.737,418.634,231.986,408.177,231.986,394.915z"/>
</g>
<polyline style="fill:#E0DCCD;" points="432.101,83.626 504.143,83.626 504.143,339.773 7.857,339.773 7.857,83.626 304.028,83.626 
	"/>
<path style="fill:#75C0C7;" d="M376.045,213.058c9.34,3.29,16.034,12.191,16.034,22.656c0,13.262-10.751,24.014-24.014,24.014
	c-13.262,0-24.014-10.751-24.014-24.014c0-7.111,3.092-13.501,8.004-17.898"/>
<rect x="7.857" y="82.742" style="fill:#A8A59A;" width="56.028" height="257.029"/>
<g>
	<rect x="456.103" y="83.382" style="fill:#4BAF78;" width="48.192" height="88.002"/>
	<polygon style="fill:#4BAF78;" points="336.046,340.06 464.119,211.2 504.291,211.2 504.291,340.06 	"/>
	<polyline style="fill:#4BAF78;" points="151.94,339.773 235.988,255.725 320.037,339.773 	"/>
	<polyline style="fill:#4BAF78;" points="79.899,83.626 167.949,171.677 255.999,83.626 	"/>
	<polyline style="fill:#4BAF78;" points="296.023,83.626 215.977,163.673 276.012,223.707 328.042,171.677 	"/>
	<polygon style="fill:#4BAF78;" points="95.908,340.06 179.882,255.868 7.708,83.626 7.708,340.06 	"/>
</g>
<polygon style="fill:#1E834E;" points="63.89,339.773 7.857,339.773 7.857,83.895 63.89,139.658 "/>
<rect x="7.857" y="339.772" style="fill:#75C0C7;" width="496.291" height="40.02"/>
<rect x="7.857" y="339.772" style="fill:#589095;" width="152.087" height="40.02"/>
<path style="fill:#FCBB3B;" d="M432.101,107.64c0,35.366-64.037,120.07-64.037,120.07s-64.037-84.702-64.037-120.07
	s28.67-64.037,64.037-64.037S432.101,72.273,432.101,107.64z"/>
<path style="fill:#BD8C2C;" d="M328.042,107.64c0-31.259,22.409-57.248,52.03-62.873c-3.893-0.74-7.898-1.164-12.007-1.164
	c-35.366,0-64.037,28.67-64.037,64.037s64.037,120.07,64.037,120.07s4.913-6.504,12.007-16.635
	C361.532,184.592,328.042,133.22,328.042,107.64z"/>
<g>
	<rect x="383.815" y="331.685" style="fill:#FFFFFF;" width="16.762" height="15.715"/>
	<rect x="416.292" y="331.685" style="fill:#FFFFFF;" width="15.715" height="15.715"/>
	<rect x="447.722" y="331.685" style="fill:#FFFFFF;" width="16.762" height="15.715"/>
</g>
<path d="M432.484,75.769c-11.77-23.694-36.218-40.023-64.42-40.023c-28.202,0-52.649,16.33-64.42,40.023H0v311.885h512V75.769
	H432.484z M496.285,164.056h-31.803V91.484h31.803V164.056z M448.766,91.484v88.287h47.518v24.096h-35.421L333.124,331.679h-10.069
	l-87.068-87.066l-87.067,87.066h-33.808l75.954-75.954L26.827,91.484h49.816l91.306,91.305l91.305-91.305h17.798l-72.189,72.189
	l71.147,71.146l51.973-51.971c0.464,0.749,0.926,1.497,1.401,2.256c6.357,10.164,12.668,19.577,18.013,27.295
	c-6.458,6.02-10.157,14.475-10.157,23.315c0,17.573,14.297,31.871,31.871,31.871s31.871-14.297,31.871-31.871
	c0-9.623-4.36-18.509-11.465-24.453c5.172-7.497,11.179-16.489,17.226-26.158c22.039-35.238,33.215-61.301,33.215-77.463
	c0-5.556-0.655-10.959-1.853-16.157L448.766,91.484L448.766,91.484z M300.83,331.679H171.146l64.842-64.843L300.83,331.679z
	 M15.715,102.596l153.13,153.129l-75.956,75.954H15.715V102.596z M98.868,91.484H237.03l-69.081,69.082L98.868,91.484z
	 M319.667,168.939l-43.655,43.655l-48.923-48.922l70.558-70.557c-0.967,4.692-1.475,9.549-1.475,14.525
	C296.17,121.223,304.066,141.802,319.667,168.939z M380.408,224.176c3.034,2.98,4.86,7.104,4.86,11.537
	c0,8.909-7.248,16.157-16.157,16.157c-8.909,0-16.157-7.248-16.157-16.157c0-3.761,1.337-7.374,3.697-10.248
	c3.021,4.169,4.924,6.69,5.145,6.983l6.267,8.29l6.267-8.29C374.574,232.127,376.846,229.114,380.408,224.176z M368.064,51.46
	c30.978,0,56.18,25.202,56.18,56.18c0,24.031-36.153,79.085-56.181,106.829c-20.028-27.74-56.178-82.785-56.178-106.829
	C311.885,76.661,337.087,51.46,368.064,51.46z M15.715,371.939v-24.545h352.383v-15.715h-12.756l112.033-112.098h28.91v112.098
	h-16.089v15.715h16.089v24.545H15.715z"/>
<polygon style="fill:#FFFFFF;" points="400.575,100.15 375.431,100.15 375.431,76.054 359.716,76.054 359.716,100.15 
	335.621,100.15 335.621,115.864 359.716,115.864 359.716,139.96 375.431,139.96 375.431,115.864 400.575,115.864 "/>
<rect x="359.719" y="147.288" width="16.762" height="15.715"/>
<path d="M335.621,460.54c-8.381,0-15.715-7.651-15.715-16.706v-48.248h-15.715v48.248c0,6.107,1.714,11.824,4.636,16.706H203.172
	c2.922-4.882,4.636-10.599,4.636-16.706v-48.248h-15.715v48.248c0,9.056-7.334,16.706-15.715,16.706h-32.477v15.715h224.196V460.54
	H335.621z"/>
<path d="M255.999,427.457c-17.573,0-31.871-14.061-31.871-31.871h15.715c0,9.429,7.248,16.157,16.157,16.157
	c8.909,0,16.157-6.728,16.157-16.157h15.715C287.871,413.396,273.574,427.457,255.999,427.457z"/>
<g>
	<polygon style="fill:#FFFFFF;" points="64.28,315.965 31.803,315.965 31.803,179.771 47.518,179.771 47.518,300.25 64.28,300.25 	
		"/>
	<rect x="71.617" y="300.255" style="fill:#FFFFFF;" width="16.762" height="15.715"/>
</g>
<g>
</g>
<g>
</g>
<g>
</g>
<g>
</g>
<g>
</g>
<g>
</g>
<g>
</g>
<g>
</g>
<g>
</g>
<g>
</g>
<g>
</g>
<g>
</g>
<g>
</g>
<g>
</g>
<g>
</g>
</svg>
