<?xml version="1.0" encoding="iso-8859-1"?>
<!-- Generator: Adobe Illustrator 19.0.0, SVG Export Plug-In . SVG Version: 6.00 Build 0)  -->
<svg version="1.1" id="Layer_1" xmlns="http://www.w3.org/2000/svg" xmlns:xlink="http://www.w3.org/1999/xlink" x="0px" y="0px"
	 viewBox="0 0 512 512" style="enable-background:new 0 0 512 512;" xml:space="preserve">
<rect x="383.715" y="247.88" style="fill:#E0DCCD;" width="104.697" height="96.321"/>
<rect x="448.114" y="296.135" style="fill:#4BAF78;" width="40.026" height="24.014"/>
<rect x="383.715" y="151.559" style="fill:#E0DCCD;" width="104.697" height="96.321"/>
<g>
	<rect x="383.715" y="151.559" style="fill:#A8A59A;" width="24.08" height="96.321"/>
	<rect x="383.715" y="247.88" style="fill:#A8A59A;" width="24.08" height="96.321"/>
</g>
<g>
	<rect x="424.096" y="152.051" style="fill:#75C0C7;" width="24.014" height="24.014"/>
	<rect x="424.096" y="248.111" style="fill:#75C0C7;" width="24.014" height="24.014"/>
	<rect x="31.867" y="232.102" style="fill:#75C0C7;" width="72.043" height="80.051"/>
</g>
<rect x="255.995" y="272.128" style="fill:#FCBB3B;" width="72.043" height="24.014"/>
<rect x="31.702" y="232.176" style="fill:#589095;" width="24.014" height="72.043"/>
<rect x="87.899" y="55.991" style="fill:#4BAF78;" width="200.537" height="24.014"/>
<polygon style="fill:#FCBB3B;" points="504.148,368.18 360.062,368.18 360.062,63.999 384.076,63.999 384.076,344.166 
	504.148,344.166 "/>
<path style="fill:#E0DCCD;" d="M159.943,264.119v-64.038c0-8.842-7.168-16.009-16.009-16.009l0,0
	c-8.842,0-16.009,7.168-16.009,16.009v96.057h56.034c8.842,0,16.009-7.168,16.009-16.009l0,0c0-8.842-7.168-16.009-16.009-16.009
	h-24.015V264.119z"/>
<rect x="143.938" y="320.153" style="fill:#4BAF78;" width="192.119" height="24.014"/>
<g>
	<rect x="143.938" y="320.153" style="fill:#1E834E;" width="56.034" height="24.014"/>
	<rect x="87.422" y="55.991" style="fill:#1E834E;" width="56.511" height="24.014"/>
</g>
<g>
	<polygon style="fill:#75C0C7;" points="336.048,320.152 143.933,320.152 119.919,296.137 336.048,296.137 	"/>
	<rect x="135.928" y="344.17" style="fill:#75C0C7;" width="192.119" height="96.06"/>
</g>
<circle style="fill:#FCBB3B;" cx="296.02" cy="416.212" r="40.026"/>
<path style="fill:#AF7C18;" d="M288.019,416.209c0-16.403,9.891-30.464,24.014-36.645c-4.908-2.148-10.308-3.379-16.009-3.379
	c-22.105,0-40.024,17.919-40.024,40.024c0,22.105,17.919,40.024,40.024,40.024c5.701,0,11.101-1.231,16.009-3.379
	C297.91,446.673,288.019,432.612,288.019,416.209z"/>
<rect x="148.534" y="344.17" style="fill:#589095;" width="59.44" height="96.06"/>
<circle style="fill:#FCBB3B;" cx="87.899" cy="376.186" r="80.051"/>
<path style="fill:#AF7C18;" d="M55.881,376.185c0-35.841,23.559-66.17,56.034-76.371c-7.582-2.382-15.646-3.676-24.014-3.676
	c-44.209,0-80.047,35.838-80.047,80.047s35.839,80.047,80.047,80.047c8.368,0,16.432-1.294,24.014-3.676
	C79.44,442.355,55.881,412.025,55.881,376.185z"/>
<circle style="fill:#44BDC2;" cx="87.899" cy="376.186" r="40.026"/>
<path d="M87.901,424.061c-26.399,0-47.877-21.478-47.877-47.877c0-26.398,21.478-47.876,47.877-47.876
	c26.398,0,47.876,21.478,47.876,47.876C135.776,402.584,114.299,424.061,87.901,424.061z M87.901,344.014
	c-17.74,0-32.172,14.432-32.172,32.171c0,17.74,14.432,32.172,32.172,32.172c17.739,0,32.171-14.432,32.171-32.172
	S105.639,344.014,87.901,344.014z"/>
<g>
	<polygon style="fill:#FFFFFF;" points="95.798,359.911 80.093,359.911 80.093,368.287 71.717,368.287 71.717,383.992 
		80.093,383.992 80.093,392.367 95.798,392.367 95.798,383.992 104.174,383.992 104.174,368.287 95.798,368.287 	"/>
	<polygon style="fill:#FFFFFF;" points="312.521,408.072 304.145,408.072 304.145,399.696 288.44,399.696 288.44,408.072 
		280.065,408.072 280.065,423.777 288.44,423.777 288.44,432.152 304.145,432.152 304.145,423.777 312.521,423.777 	"/>
	<rect x="183.743" y="400.738" style="fill:#FFFFFF;" width="56.536" height="15.705"/>
	<rect x="47.637" y="247.88" style="fill:#FFFFFF;" width="15.705" height="24.08"/>
	<rect x="71.717" y="247.88" style="fill:#FFFFFF;" width="15.705" height="24.08"/>
</g>
<rect x="7.852" y="192.391" style="fill:#FCBB3B;" width="15.705" height="15.705"/>
<rect x="400.466" y="216.471" style="fill:#FFFFFF;" width="31.409" height="15.705"/>
<polygon points="259.424,201.561 225.462,235.523 236.567,246.627 247.958,235.236 255.984,243.335 255.984,280.342 
	312.521,280.342 312.521,264.637 271.689,264.637 271.689,236.872 259.063,224.131 270.529,212.665 "/>
<path d="M495.741,336.314v-80.052v-15.705v-96.321H391.928V56.146h-39.719V184.02h-21.712
	c-7.23-38.621-22.128-75.444-44.114-108.521l-2.331-3.505H87.422v15.705h188.175c28.965,45.019,44.252,97.112,44.252,150.938v50.081
	H206.213c1.033-2.668,1.606-5.562,1.606-8.589c0-13.157-10.704-23.863-23.863-23.863h-16.162V200.08
	c0-13.157-10.704-23.863-23.861-23.863c-13.157,0-23.863,10.704-23.863,23.863v88.638h-8.568V96.075H95.798v127.73H63.342v-31.409
	H31.933v15.705h15.705v15.705h-24.08v92.579C8.955,332.085,0,353.104,0,376.185c0,48.468,39.432,87.9,87.901,87.9
	c18.914,0,36.437-6.025,50.792-16.228h121.453c8.779,9.941,21.605,16.228,35.88,16.228c26.399,0,47.877-21.478,47.877-47.876
	c0-9.998-3.084-19.286-8.346-26.972v-53.406H165.95c-1.307-2.517-2.729-4.962-4.265-7.329h173.869v-15.705H148.702
	c-3.164-3.036-6.551-5.836-10.139-8.376h196.991v-65.785c0-2.155-0.03-4.306-0.076-6.456h16.733v143.852h45.404l-24.788,24.71
	h-20.521v15.705h27.011l40.541-40.415H512v-39.719H495.741z M39.261,239.51h56.536v49.148c-2.604-0.233-5.235-0.373-7.897-0.373
	c-17.974,0-34.7,5.433-48.639,14.729V239.51z M296.024,448.38c-17.739,0-32.171-14.432-32.171-32.171
	c0-17.74,14.432-32.172,32.171-32.172c17.74,0,32.172,14.432,32.172,32.172C328.196,433.948,313.763,448.38,296.024,448.38z
	 M175.8,376.185c0-8.557-1.252-16.823-3.543-24.649h147.592v23.174c-7.022-4.048-15.155-6.376-23.826-6.376
	c-26.398,0-47.876,21.478-47.876,47.877c0,5.589,0.972,10.952,2.74,15.943h-95.261C168.221,416.939,175.8,397.432,175.8,376.185z
	 M160.095,376.185c0,39.809-32.387,72.196-72.196,72.196s-72.195-32.387-72.195-72.196s32.387-72.196,72.196-72.196
	S160.095,336.376,160.095,376.185z M183.957,288.285h-48.182V200.08c0-4.498,3.659-8.158,8.158-8.158
	c4.498,0,8.157,3.659,8.157,8.158v71.89h31.867c4.498,0,8.158,3.659,8.158,8.158C192.115,284.626,188.455,288.285,183.957,288.285z
	 M352.21,216.476h-17.481c-0.418-5.612-0.998-11.196-1.731-16.752h19.211v16.752H352.21z M431.875,159.94h8.376v8.376h-8.376V159.94
	z M392.09,159.94h24.08v24.08h39.785v-24.08h24.08v80.617H392.09V159.94z M440.251,256.261v8.376h-8.376v-8.376H440.251z
	 M392.09,256.261h24.08v24.08h39.785v-24.08h24.08v32.024h-41.315v39.719h41.315v7.827H392.09V256.261z M478.745,303.989v8.31
	h-24.319v-8.31H478.745z M496.295,360.328H367.915V71.851h8.31v280.167h120.071V360.328z"/>
<rect x="87.422" y="47.914" width="201.018" height="15.705"/>
<g>
</g>
<g>
</g>
<g>
</g>
<g>
</g>
<g>
</g>
<g>
</g>
<g>
</g>
<g>
</g>
<g>
</g>
<g>
</g>
<g>
</g>
<g>
</g>
<g>
</g>
<g>
</g>
<g>
</g>
</svg>
