<?xml version="1.0" encoding="iso-8859-1"?>
<!-- Generator: Adobe Illustrator 19.0.0, SVG Export Plug-In . SVG Version: 6.00 Build 0)  -->
<svg version="1.1" id="Layer_1" xmlns="http://www.w3.org/2000/svg" xmlns:xlink="http://www.w3.org/1999/xlink" x="0px" y="0px"
	 viewBox="0 0 512 512" style="enable-background:new 0 0 512 512;" xml:space="preserve">
<rect x="7.266" y="342.29" style="fill:#75C0C7;" width="497.077" height="44.515"/>
<rect x="14.684" y="345.568" style="fill:#589095;" width="103.867" height="41.227"/>
<circle style="fill:#FCBB3B;" cx="88.872" cy="394.218" r="29.676"/>
<path style="fill:#BD8C2C;" d="M81.457,394.218c0-12.448,7.681-23.069,18.548-27.475c-3.441-1.396-7.187-2.201-11.129-2.201
	c-16.39,0-29.676,13.286-29.676,29.676c0,16.389,13.286,29.676,29.676,29.676c3.942,0,7.687-0.805,11.129-2.201
	C89.138,417.287,81.457,406.667,81.457,394.218z"/>
<circle style="fill:#FCBB3B;" cx="148.23" cy="394.218" r="29.676"/>
<path style="fill:#BD8C2C;" d="M140.809,394.218c0-12.448,7.681-23.069,18.548-27.475c-3.441-1.396-7.187-2.201-11.129-2.201
	c-16.39,0-29.676,13.286-29.676,29.676c0,16.389,13.286,29.676,29.676,29.676c3.942,0,7.687-0.805,11.129-2.201
	C148.49,417.287,140.809,406.667,140.809,394.218z"/>
<circle style="fill:#FCBB3B;" cx="363.385" cy="394.218" r="29.676"/>
<path style="fill:#BD8C2C;" d="M355.962,394.218c0-12.448,7.681-23.069,18.547-27.475c-3.441-1.396-7.187-2.201-11.129-2.201
	c-16.39,0-29.676,13.286-29.676,29.676c0,16.389,13.286,29.676,29.676,29.676c3.942,0,7.687-0.805,11.129-2.201
	C363.643,417.287,355.962,406.667,355.962,394.218z"/>
<circle style="fill:#FCBB3B;" cx="422.733" cy="394.218" r="29.676"/>
<path style="fill:#BD8C2C;" d="M415.314,394.218c0-12.448,7.681-23.069,18.547-27.475c-3.441-1.396-7.187-2.201-11.129-2.201
	c-16.39,0-29.676,13.286-29.676,29.676c0,16.389,13.286,29.676,29.676,29.676c3.942,0,7.687-0.805,11.129-2.201
	C422.995,417.287,415.314,406.667,415.314,394.218z"/>
<rect x="22.104" y="112.296" style="fill:#4BAF78;" width="467.398" height="229.994"/>
<rect x="14.684" y="87.924" style="fill:#E0DCCD;" width="482.237" height="24.371"/>
<rect x="14.684" y="87.924" style="fill:#A8A59A;" width="163.216" height="24.371"/>
<rect x="14.573" y="80.711" transform="matrix(-1 -0.0017 0.0017 -1 511.3484 177.4657)" width="482.353" height="15.61"/>
<g>
	<rect x="66.622" y="141.975" style="fill:#1E834E;" width="21.837" height="178.721"/>
	<rect x="118.551" y="141.975" style="fill:#1E834E;" width="21.937" height="178.721"/>
	<rect x="170.49" y="141.975" style="fill:#1E834E;" width="22.257" height="178.721"/>
	<rect x="222.418" y="141.975" style="fill:#1E834E;" width="22.257" height="178.721"/>
	<rect x="274.347" y="141.975" style="fill:#1E834E;" width="22.257" height="178.721"/>
	<rect x="326.286" y="141.975" style="fill:#1E834E;" width="22.257" height="178.721"/>
	<rect x="378.214" y="141.975" style="fill:#1E834E;" width="21.391" height="178.721"/>
	<rect x="430.153" y="141.975" style="fill:#1E834E;" width="22.53" height="178.721"/>
</g>
<polygon points="73.886,320.689 58.276,320.689 58.276,134.413 88.455,134.413 88.455,150.022 73.886,150.022 "/>
<polygon points="125.919,320.689 110.309,320.689 110.309,134.413 140.488,134.413 140.488,150.022 125.919,150.022 "/>
<polygon points="178.992,320.689 163.382,320.689 163.382,134.413 192.52,134.413 192.52,150.022 178.992,150.022 "/>
<polygon points="231.024,320.689 215.415,320.689 215.415,134.413 244.553,134.413 244.553,150.022 231.024,150.022 "/>
<polygon points="282.016,320.689 266.406,320.689 266.406,134.413 296.585,134.413 296.585,150.022 282.016,150.022 "/>
<polygon points="334.049,320.689 318.439,320.689 318.439,134.413 348.618,134.413 348.618,150.022 334.049,150.022 "/>
<polygon points="387.122,320.689 371.512,320.689 371.512,134.413 399.61,134.413 399.61,150.022 387.122,150.022 "/>
<polygon points="437.073,320.689 421.463,320.689 421.463,134.413 452.683,134.413 452.683,150.022 437.073,150.022 "/>
<rect x="82.211" y="387.288" width="13.528" height="15.61"/>
<rect x="140.488" y="387.288" width="14.569" height="15.61"/>
<rect x="415.219" y="387.288" width="14.569" height="15.61"/>
<rect x="356.943" y="387.288" width="13.528" height="15.61"/>
<rect x="244.553" y="357.109" width="22.894" height="15.61"/>
<rect x="273.691" y="357.109" width="22.894" height="15.61"/>
<rect x="215.415" y="357.109" width="21.854" height="15.61"/>
<path d="M512,335.258h-14.69V104.49H14.3v230.768H0v59.317h51.404c0.193,20.503,16.924,37.124,37.472,37.124
	c12.068,0,22.816-5.739,29.676-14.626c6.86,8.886,17.608,14.626,29.676,14.626c20.548,0,37.279-16.621,37.472-37.124h140.208
	c0.193,20.503,16.925,37.124,37.473,37.124c12.068,0,22.816-5.739,29.676-14.626c6.86,8.886,17.608,14.626,29.677,14.626
	c20.547,0,37.279-16.621,37.472-37.124H512V335.258z M29.909,120.099H481.7v215.159H29.909V120.099z M88.876,416.09
	c-12.06,0-21.871-9.811-21.871-21.871c0-12.059,9.811-21.871,21.871-21.871s21.871,9.811,21.871,21.871
	S100.936,416.09,88.876,416.09z M148.228,416.09c-12.059,0-21.871-9.811-21.871-21.871c0-12.059,9.811-21.871,21.871-21.871
	s21.871,9.811,21.871,21.871S160.288,416.09,148.228,416.09z M363.382,416.09c-12.06,0-21.872-9.811-21.872-21.871
	c0-12.059,9.812-21.871,21.872-21.871s21.871,9.811,21.871,21.871C385.252,406.278,375.441,416.09,363.382,416.09z M422.734,416.09
	c-12.06,0-21.872-9.811-21.872-21.871c0-12.059,9.812-21.871,21.872-21.871s21.871,9.811,21.871,21.871
	C444.604,406.278,434.794,416.09,422.734,416.09z M456.958,378.965c-5.855-13.084-18.988-22.227-34.224-22.227
	c-12.069,0-22.817,5.739-29.677,14.625c-6.86-8.886-17.608-14.625-29.676-14.625c-15.237,0-28.37,9.143-34.225,22.227H182.452
	c-5.855-13.084-18.988-22.227-34.224-22.227c-12.068,0-22.816,5.739-29.676,14.625c-6.86-8.886-17.608-14.625-29.676-14.625
	c-15.236,0-28.369,9.143-34.224,22.227H15.61v-6.244h28.098v-15.61H15.61v-6.244h480.78v6.244h-13.528v15.61h13.528v6.244H456.958z"
	/>
<g>
</g>
<g>
</g>
<g>
</g>
<g>
</g>
<g>
</g>
<g>
</g>
<g>
</g>
<g>
</g>
<g>
</g>
<g>
</g>
<g>
</g>
<g>
</g>
<g>
</g>
<g>
</g>
<g>
</g>
</svg>
