<?xml version="1.0" encoding="iso-8859-1"?>
<!-- Generator: Adobe Illustrator 19.0.0, SVG Export Plug-In . SVG Version: 6.00 Build 0)  -->
<svg version="1.1" id="Layer_1" xmlns="http://www.w3.org/2000/svg" xmlns:xlink="http://www.w3.org/1999/xlink" x="0px" y="0px"
	 viewBox="0 0 512 512" style="enable-background:new 0 0 512 512;" xml:space="preserve">
<polygon style="fill:#FCBB3B;" points="24.015,455.69 40.026,55.267 88.056,55.267 112.072,455.69 "/>
<polygon style="fill:#BD8C2C;" points="24.015,455.69 40.026,55.267 63.609,55.267 63.609,455.69 "/>
<rect x="40.022" y="95.466" style="fill:#75C0C7;" width="48.03" height="40.022"/>
<polygon style="fill:#589095;" points="72.046,135.487 36.836,135.039 40.026,95.461 72.046,95.461 "/>
<polyline style="fill:#FCBB3B;" points="135.446,271.486 144.092,55.267 192.122,55.267 205.845,247.426 "/>
<polyline style="fill:#BD8C2C;" points="135.446,271.486 144.092,55.267 168.107,55.267 176.112,255.437 "/>
<polygon style="fill:#FFFFFF;" points="96.061,159.502 35.876,159.022 36.836,135.039 93.751,135.487 "/>
<rect x="144.09" y="95.466" style="fill:#75C0C7;" width="48.03" height="40.022"/>
<polygon style="fill:#FFFFFF;" points="200.127,159.502 139.943,159.022 140.919,135.039 197.817,135.469 "/>
<polygon style="fill:#589095;" points="176.112,135.487 140.919,135.039 144.092,95.461 176.112,95.461 "/>
<polyline style="fill:#4BAF78;" points="263.821,223.153 263.821,95.935 472.375,95.935 472.375,279.462 "/>
<polyline style="fill:#1E834E;" points="263.821,223.153 263.821,95.935 328.473,95.935 328.473,279.462 "/>
<rect x="288.18" y="119.481" style="fill:#FFFFFF;" width="160.096" height="56.035"/>
<polyline style="fill:#4BAF78;" points="80.293,455.69 80.293,287.583 288.326,215.537 496.358,287.583 496.358,455.69 "/>
<rect x="288.18" y="119.481" style="fill:#FCBB3B;" width="160.096" height="32.02"/>
<g>
	<rect x="360.225" y="303.592" style="fill:#FFFFFF;" width="104.068" height="64.037"/>
	<rect x="360.225" y="423.667" style="fill:#FFFFFF;" width="104.068" height="32.02"/>
</g>
<rect x="360.225" y="399.652" style="fill:#FCBB3B;" width="104.068" height="24.015"/>
<polygon style="fill:#1E834E;" points="176.112,455.69 80.051,455.69 80.051,287.583 176.112,255.437 "/>
<g>
	<rect x="112.066" y="303.592" style="fill:#FFFFFF;" width="216.135" height="32.02"/>
	<rect x="112.066" y="431.675" style="fill:#FFFFFF;" width="216.135" height="24.015"/>
</g>
<rect x="112.066" y="359.63" style="fill:#FCBB3B;" width="216.135" height="72.045"/>
<polygon style="fill:#75C0C7;" points="424.407,263.568 152.096,263.568 288.183,215.537 "/>
<rect x="112.066" y="407.66" style="fill:#BD8C2C;" width="216.135" height="24.015"/>
<circle style="fill:#FCBB3B;" cx="288.18" cy="263.57" r="16.011"/>
<rect x="112.066" y="359.63" style="fill:#BD8C2C;" width="216.135" height="24.015"/>
<path d="M104.251,295.773v47.662h231.779v-47.662H104.251z M256.521,311.415v16.379h-72.994v-16.379H256.521z M119.892,311.415
	h47.993v16.379h-47.993V311.415z M320.388,327.794h-48.225v-16.379h48.225V327.794z"/>
<path d="M352.408,295.773v79.682h119.708v-79.682H352.408z M424.407,311.415v48.399h-23.984v-48.399H424.407z M368.05,311.415
	h16.732v48.399H368.05V311.415z M456.475,359.814h-16.426v-48.399h16.426V359.814z"/>
<path d="M503.658,448.391V282.015l-23.984-8.306V87.593H256.521v130.503l-43.875,15.194L199.405,47.967h-62.827l-8.592,214.643
	l-16.892,5.85L95.338,47.967H32.511L16.487,448.391H0v15.642h512v-15.642H503.658z M272.163,103.234h191.87v165.058l-176.228-61.031
	l-15.642,5.417V103.234z M151.606,63.609h33.234l1.714,23.984h-35.909L151.606,63.609z M150.019,103.234h37.652l1.714,23.984
	h-40.327L150.019,103.234z M148.433,142.859h42.071l0.596,8.342h-43.001L148.433,142.859z M147.473,166.843h44.745l5.127,71.746
	l-53.487,18.524L147.473,166.843z M47.54,63.609h33.234l1.714,23.984H46.579L47.54,63.609z M45.954,103.234h37.651l1.714,23.984
	H44.994L45.954,103.234z M44.369,142.859h42.068l0.596,8.342h-43L44.369,142.859z M43.408,166.843h44.742l7.64,106.916l-23.84,8.256
	v166.376h-39.81L43.408,166.843z M119.919,391.039h191.87v-15.642h-191.87v-8.342H320.13v32.326h-191.87v15.642h191.87v8.342
	H119.919V391.039z M119.919,439.006H320.13v9.385H119.919V439.006z M456.733,448.391h-88.635v-16.684h88.635V448.391z
	 M456.733,416.065h-88.635v-8.342h88.635V416.065z M352.456,392.081v56.31h-16.684v-96.978H104.277v96.978H87.593V293.152
	l200.212-69.338l200.212,69.338v155.239h-15.642v-56.31H352.456z"/>
<path d="M456.105,111.656H280.362v71.677h175.743V111.656z M320.13,167.691h-24.127v-8.147h24.127V167.691z M400.424,167.691
	h-64.652v-8.147h64.652V167.691z M440.464,167.691h-24.399v-8.147h24.399V167.691z M440.464,143.902h-24.399h-15.642h-64.652H320.13
	h-24.127v-16.605h144.46V143.902z"/>
<path d="M288.183,239.737c-10.302,0-19.095,6.572-22.415,15.742h-57.214v15.642h57.032c3.166,9.449,12.096,16.279,22.598,16.279
	c10.501,0,19.431-6.83,22.597-16.279h57.317v-15.642h-57.499C307.279,246.309,298.485,239.737,288.183,239.737z M288.183,271.757
	c-4.515,0-8.19-3.674-8.19-8.19s3.674-8.19,8.19-8.19c4.516,0,8.19,3.674,8.19,8.19
	C296.373,268.084,292.698,271.757,288.183,271.757z"/>
<g>
</g>
<g>
</g>
<g>
</g>
<g>
</g>
<g>
</g>
<g>
</g>
<g>
</g>
<g>
</g>
<g>
</g>
<g>
</g>
<g>
</g>
<g>
</g>
<g>
</g>
<g>
</g>
<g>
</g>
</svg>
