<?xml version="1.0" encoding="iso-8859-1"?>
<!-- Generator: Adobe Illustrator 19.0.0, SVG Export Plug-In . SVG Version: 6.00 Build 0)  -->
<svg version="1.1" id="Layer_1" xmlns="http://www.w3.org/2000/svg" xmlns:xlink="http://www.w3.org/1999/xlink" x="0px" y="0px"
	 viewBox="0 0 512 512" style="enable-background:new 0 0 512 512;" xml:space="preserve">
<polyline style="fill:#A8A59A;" points="297.189,278.943 297.189,198.65 455.69,198.65 455.69,253.917 "/>
<polygon style="fill:#4BAF78;" points="424.407,198.65 424.407,133.998 287.805,133.998 287.805,174.666 297.189,174.666 
	297.189,198.65 "/>
<rect x="351.935" y="199.232" style="fill:#E0DCCD;" width="103.985" height="55.989"/>
<polygon style="fill:#1E834E;" points="344.114,198.65 344.114,133.998 287.805,133.998 287.805,174.666 297.189,174.666 
	297.189,198.65 423.917,198.65 "/>
<polyline style="fill:#75C0C7;" points="175.185,230.976 175.185,174.666 297.189,174.666 297.189,230.976 "/>
<polyline style="fill:#1E834E;" points="175.185,278.943 175.185,230.976 297.189,230.976 297.189,278.943 "/>
<polyline style="fill:#4BAF78;" points="216.896,278.943 216.896,230.976 297.189,230.976 297.189,278.943 "/>
<polyline style="fill:#589095;" points="175.185,230.976 175.185,174.666 200.212,174.666 200.212,230.976 "/>
<polygon style="fill:#A8A59A;" points="143.902,159.024 72.994,159.024 72.994,253.917 39.625,253.917 39.625,278.943 
	143.902,278.943 "/>
<rect x="95.977" y="159.241" style="fill:#E0DCCD;" width="47.988" height="119.981"/>
<polyline style="fill:#4BAF78;" points="152.244,159.024 55.267,159.024 55.267,133.998 152.244,133.998 "/>
<polyline style="fill:#1E834E;" points="80.293,159.024 55.267,159.024 55.267,133.998 80.293,133.998 "/>
<path style="fill:#FCBB3B;" d="M407.92,350.548c53.009,0,95.981-42.408,95.981-96.632H335.935l-15.997,25.026H15.997
	c0,39.625,32.229,71.796,71.986,71.796"/>
<g>
	<polygon style="fill:#BD8C2C;" points="423.917,253.917 335.935,253.917 319.937,278.943 407.92,278.943 	"/>
	<path style="fill:#BD8C2C;" d="M103.98,278.943H15.997c0,39.625,32.229,71.951,71.986,71.951h87.983
		C136.209,350.894,103.98,318.568,103.98,278.943z"/>
</g>
<rect y="353.614" style="fill:#75C0C7;" width="511.896" height="78.614"/>
<polygon style="fill:#589095;" points="228.946,432.226 0,432.226 0,353.613 383.925,353.613 "/>
<polygon points="80.293,263.301 39.625,263.301 39.625,247.66 64.652,247.66 64.652,174.666 80.293,174.666 "/>
<rect x="72.994" y="295.625" width="15.642" height="15.642"/>
<rect x="95.935" y="295.625" style="fill:#FFFFFF;" width="16.684" height="15.642"/>
<rect x="119.919" y="295.625" width="15.642" height="15.642"/>
<rect x="143.902" y="295.625" style="fill:#FFFFFF;" width="15.642" height="15.642"/>
<rect x="167.886" y="295.625" width="16.684" height="15.642"/>
<g>
	<rect x="192.912" y="295.625" style="fill:#FFFFFF;" width="15.642" height="15.642"/>
	<rect x="216.896" y="295.625" style="fill:#FFFFFF;" width="15.642" height="15.642"/>
</g>
<rect x="239.837" y="295.625" width="16.684" height="15.642"/>
<rect x="375.397" y="278.941" width="49.01" height="15.642"/>
<rect x="104.277" y="79.772" width="15.642" height="54.224"/>
<rect x="104.277" y="174.664" style="fill:#FFFFFF;" width="39.625" height="15.642"/>
<rect x="112.619" y="198.648" width="15.642" height="15.642"/>
<rect x="112.619" y="222.631" width="15.642" height="15.642"/>
<polygon points="431.707,183.008 416.065,183.008 416.065,143.383 297.189,143.383 297.189,159.024 281.548,159.024 
	281.548,127.741 431.707,127.741 "/>
<rect x="321.173" y="215.332" width="134.517" height="15.642"/>
<rect x="384.782" y="151.723" width="15.642" height="31.283"/>
<rect x="359.756" y="151.723" width="15.642" height="31.283"/>
<rect x="336.815" y="151.723" width="15.642" height="31.283"/>
<rect x="312.831" y="151.723" width="15.642" height="31.283"/>
<rect x="192.912" y="191.348" width="15.642" height="22.941"/>
<rect x="216.896" y="191.348" width="15.642" height="22.941"/>
<rect x="240.88" y="191.348" width="15.642" height="22.941"/>
<rect x="263.821" y="191.348" width="15.642" height="22.941"/>
<g>
	<rect x="55.267" y="376.961" style="fill:#FFFFFF;" width="80.293" height="15.642"/>
	<rect x="135.56" y="392.603" style="fill:#FFFFFF;" width="23.984" height="15.642"/>
	<rect x="200.212" y="376.961" style="fill:#FFFFFF;" width="23.984" height="15.642"/>
	<rect x="31.283" y="408.244" style="fill:#FFFFFF;" width="17.727" height="15.642"/>
	<rect x="239.837" y="392.603" style="fill:#FFFFFF;" width="96.978" height="15.642"/>
	<rect x="336.815" y="376.961" style="fill:#FFFFFF;" width="38.582" height="15.642"/>
	<rect x="406.68" y="392.603" style="fill:#FFFFFF;" width="17.727" height="15.642"/>
</g>
<path d="M512,255.481v-7.821h-49.01v-56.31H303.446v-23.984h-135.56v104.277h-15.642V151.725H64.652v-8.342h87.593v-15.642H49.01
	v39.625h87.593v104.277H8.342v7.821c0,26.261,12.651,49.591,32.166,64.13H0v15.642h510.957v-15.642h-48.503
	c6.771-4.236,13.111-9.288,18.917-15.119C500.969,308.791,512,282.868,512,255.481z M303.446,206.992h143.902v40.668H331.75
	l-15.997,23.984h-12.307V206.992z M183.527,183.008h104.277v8.342v31.283H183.527V183.008z M183.527,238.275h104.277v9.385h-87.593
	v15.642h87.593v8.342H183.527V238.275z M407.723,343.509v0.086H87.593v-0.025c-32.326,0-59.426-24.612-63.3-56.285h299.829
	l15.997-23.984h155.613c-1.821,20.308-10.807,39.298-25.583,54.137C453.41,334.25,431.707,343.509,407.723,343.509z"/>
<g>
</g>
<g>
</g>
<g>
</g>
<g>
</g>
<g>
</g>
<g>
</g>
<g>
</g>
<g>
</g>
<g>
</g>
<g>
</g>
<g>
</g>
<g>
</g>
<g>
</g>
<g>
</g>
<g>
</g>
</svg>
