<?xml version="1.0" encoding="iso-8859-1"?>
<!-- Generator: Adobe Illustrator 19.0.0, SVG Export Plug-In . SVG Version: 6.00 Build 0)  -->
<svg version="1.1" id="Layer_1" xmlns="http://www.w3.org/2000/svg" xmlns:xlink="http://www.w3.org/1999/xlink" x="0px" y="0px"
	 viewBox="0 0 511.999 511.999" style="enable-background:new 0 0 511.999 511.999;" xml:space="preserve">
<circle style="fill:#E0DCCD;" cx="256" cy="284.592" r="195.163"/>
<path style="fill:#A8A59A;" d="M199.077,284.589c0-83.441,52.382-154.614,126.042-182.524c-21.49-8.143-44.776-12.638-69.119-12.638
	c-107.784,0-195.162,87.377-195.162,195.162S148.215,479.751,256,479.751c24.344,0,47.629-4.494,69.119-12.638
	C251.46,439.202,199.077,368.029,199.077,284.589z"/>
<path style="fill:#75C0C7;" d="M256,89.426c-107.784,0-195.162,87.377-195.162,195.162S148.215,479.751,256,479.751
	s195.162-87.377,195.162-195.162S363.784,89.426,256,89.426z M256,463.486c-98.803,0-178.899-80.096-178.899-178.899
	S157.197,105.689,256,105.689s178.899,80.096,178.899,178.899S354.803,463.486,256,463.486z"/>
<path style="fill:#FCBB3B;" d="M256,121.953c89.821,0,162.635,72.814,162.635,162.635S345.82,447.223,256,447.223"/>
<path style="fill:#4BAF78;" d="M256,65.031c-121.258,0-219.557,98.299-219.557,219.557S134.742,504.144,256,504.144
	s219.557-98.299,219.557-219.557S377.258,65.031,256,65.031z M256,479.75c-107.784,0-195.162-87.377-195.162-195.162
	S148.215,89.426,256,89.426s195.162,87.377,195.162,195.162S363.784,479.75,256,479.75z"/>
<path style="fill:#1E834E;" d="M256.176,65.031c-121.486,0-219.557,98.299-219.557,219.557s98.071,219.557,219.557,219.557v-24.396
	c-107.871,0-195.162-87.377-195.162-195.162s87.291-195.16,195.162-195.16V65.031z"/>
<path d="M256,487.604c-111.944,0-203.017-91.073-203.017-203.017S144.056,81.572,256,81.572s203.017,91.073,203.017,203.017
	S367.943,487.604,256,487.604z M256,97.281c-103.282,0-187.307,84.025-187.307,187.307S152.718,471.896,256,471.896
	s187.307-84.025,187.307-187.307S359.281,97.281,256,97.281z"/>
<path d="M390.1,207.241c-8.412-14.55-19.082-27.582-31.713-38.733l10.396-11.777c13.907,12.276,25.656,26.625,34.918,42.648
	L390.1,207.241z"/>
<path d="M348.877,160.76c-3.639-2.734-7.447-5.341-11.319-7.747c-8.654-5.376-17.868-9.905-27.385-13.462l5.499-14.716
	c10.488,3.919,20.64,8.909,30.176,14.833c4.265,2.65,8.458,5.52,12.466,8.531L348.877,160.76z"/>
<path d="M256,455.573h-8.202v-15.709H256c85.346,0,154.781-69.546,154.781-155.028c0-21.374-4.338-42.148-12.892-61.744
	l14.397-6.285c9.426,21.59,14.204,44.479,14.204,68.029C426.489,378.981,350.008,455.573,256,455.573z"/>
<g>
	<rect x="247.8" y="114.155" style="fill:#FFFFFF;" width="15.709" height="32.466"/>
	
		<rect x="186.887" y="131.547" transform="matrix(-0.342 -0.9397 0.9397 -0.342 141.633 377.9783)" style="fill:#FFFFFF;" width="32.529" height="15.709"/>
	
		<rect x="140.431" y="158.367" transform="matrix(-0.6428 -0.766 0.766 -0.6428 130.0926 393.1037)" style="fill:#FFFFFF;" width="32.528" height="15.709"/>
	
		<rect x="105.933" y="199.474" transform="matrix(-0.866 -0.5 0.5 -0.866 124.3565 447.9793)" style="fill:#FFFFFF;" width="32.528" height="15.709"/>
	
		<rect x="87.592" y="249.899" transform="matrix(-0.9848 -0.1736 0.1736 -0.9848 161.3878 529.6235)" style="fill:#FFFFFF;" width="32.528" height="15.709"/>
	
		<rect x="95.999" y="295.151" transform="matrix(-0.1736 -0.9848 0.9848 -0.1736 -184.8047 467.7546)" style="fill:#FFFFFF;" width="15.709" height="32.528"/>
	
		<rect x="114.351" y="345.571" transform="matrix(-0.5 -0.866 0.866 -0.5 -130.0468 648.5879)" style="fill:#FFFFFF;" width="15.709" height="32.528"/>
	
		<rect x="148.824" y="386.665" transform="matrix(-0.766 -0.6428 0.6428 -0.766 17.6882 812.2971)" style="fill:#FFFFFF;" width="15.709" height="32.528"/>
	
		<rect x="195.295" y="413.512" transform="matrix(-0.9397 -0.342 0.342 -0.9397 247.0661 903.1153)" style="fill:#FFFFFF;" width="15.709" height="32.529"/>
	<rect x="247.8" y="228.31" style="fill:#FFFFFF;" width="16.757" height="15.709"/>
	<rect x="223.712" y="228.31" style="fill:#FFFFFF;" width="16.757" height="15.709"/>
	<rect x="271.887" y="228.31" style="fill:#FFFFFF;" width="16.757" height="15.709"/>
</g>
<rect x="223.712" style="fill:#FCBB3B;" width="64.932" height="15.709"/>
<rect x="401.158" y="64.94" transform="matrix(-0.766 -0.6428 0.6428 -0.766 719.1055 407.3379)" style="fill:#75C0C7;" width="65.056" height="15.709"/>
<path d="M416.804,123.784c-2.837-2.837-5.739-5.584-8.697-8.251l10.897-12.986l6.442,5.405l10.098-12.033L410.627,75.01
	l-10.098,12.033l6.442,5.405l-10.879,12.965c-37.89-29.747-83.917-46.534-132.583-48.102V39.797h8.378V24.088h-31.419v15.709h7.331
	V57.33c-47.834,1.685-93.088,18.086-130.538,47.038l-10.002-11.919l6.442-5.405L103.603,75.01L78.686,95.917l10.098,12.033
	l6.442-5.405l9.946,11.853c-3.4,3.021-6.733,6.14-9.977,9.384c-42.953,42.953-66.608,100.061-66.608,160.805
	s23.655,117.852,66.608,160.804S195.256,511.999,256,511.999s117.852-23.655,160.804-66.608s66.608-100.061,66.608-160.804
	S459.756,166.737,416.804,123.784z M256,496.291c-116.733,0-211.703-94.97-211.703-211.702c0-116.733,94.97-211.703,211.703-211.703
	c116.732,0,211.702,94.97,211.702,211.703C467.702,401.321,372.732,496.291,256,496.291z"/>
<g>
	<circle style="fill:#75C0C7;" cx="256" cy="284.592" r="16.263"/>
	
		<rect x="72.659" y="40.275" transform="matrix(-0.6428 -0.7661 0.7661 -0.6428 76.4921 181.2806)" style="fill:#75C0C7;" width="15.71" height="65.061"/>
</g>
<path d="M280.118,284.589c0-13.299-10.82-24.118-24.118-24.118c-13.299,0-24.118,10.82-24.118,24.118
	c0,10.421,6.643,19.316,15.917,22.68v124.216h15.709V307.503C273.14,304.339,280.118,295.266,280.118,284.589z M256,292.997
	c-4.636,0-8.409-3.772-8.409-8.409s3.772-8.409,8.409-8.409c4.636,0,8.409,3.772,8.409,8.409S260.636,292.997,256,292.997z"/>
<g>
</g>
<g>
</g>
<g>
</g>
<g>
</g>
<g>
</g>
<g>
</g>
<g>
</g>
<g>
</g>
<g>
</g>
<g>
</g>
<g>
</g>
<g>
</g>
<g>
</g>
<g>
</g>
<g>
</g>
</svg>
